# xmcd
#
# Track frame offsets:
#	150
#	13052
#	30944
#	44974
#	62161
#	80490
#	99248
#	116989
#	138031
#	158658
#	173825
#	191141
#	221674
#	239229
#	255358
#	275762
#	289636
#	302170
#	321378
#
# Disc length: 4673 seconds
# Revision: 0
# Processed by: cddbd v1.5.2PL0 Copyright (c) Steve Scherf et al.
# Submitted via: dBpowerAMP V12.0
#
DISCID=1b123f13
DTITLE=38 songs - Of pure attraction [CD 1 of 2)
DYEAR=1900
DGENRE=Blues
TTITLE0=You're My Best Friend
TTITLE1=Right Beside You
TTITLE2=Easy
TTITLE3=Just a Step From Heaven
TTITLE4=Patience of Angels
TTITLE5=Return to Innocence
TTITLE6=Don't Dream It's Over
TTITLE7=Now that the Magic Has Gone
TTITLE8=Where Does My Heart Beat Now
TTITLE9=Hold Me, Thrill Me, Kiss Me
TTITLE10=Stay
TTITLE11=Someone Saved My Life Tonight
TTITLE12=Independent Love Song
TTITLE13=Now and Forever
TTITLE14=Total Eclipse Of The Heart
TTITLE15=Hold Me Now
TTITLE16=I'll Never Fall in Love Again
TTITLE17=Every Breath You Take
TTITLE18=Careless Whisper
EXTD=
EXTT0=
EXTT1=
EXTT2=
EXTT3=
EXTT4=
EXTT5=
EXTT6=
EXTT7=
EXTT8=
EXTT9=
EXTT10=
EXTT11=
EXTT12=
EXTT13=
EXTT14=
EXTT15=
EXTT16=
EXTT17=
EXTT18=
PLAYORDER=
